<?xml version="1.0" encoding="UTF-8"?>
<svg id="Layer_14" xmlns="http://www.w3.org/2000/svg" viewBox="0 0 85.5 85.49">
  <defs>
    <style>
      .cls-1, .cls-2, .cls-3 {
        fill: none;
        stroke: #000;
        stroke-miterlimit: 10;
      }

      .cls-2 {
        stroke-width: 2px;
      }

      .cls-3 {
        stroke-width: 1.56px;
      }
    </style>
  </defs>
  <g>
    <rect class="cls-3" x="45.76" y="40.91" width="11.37" height="3.48" rx="1.74" ry="1.74" transform="translate(45.22 -23.89) rotate(45)"/>
    <rect class="cls-3" x="37.1" y="49.16" width="11.37" height="3.48" rx="1.74" ry="1.74" transform="translate(48.52 -15.34) rotate(45)"/>
    <rect class="cls-3" x="42.76" y="43.06" width="8.48" height="7.2" rx="2.54" ry="2.54" transform="translate(-19.23 46.91) rotate(-45)"/>
    <rect class="cls-3" x="53.48" y="47.44" width="3.61" height="15" rx="1.81" ry="1.81" transform="translate(-22.66 55.18) rotate(-45)"/>
  </g>
  <g>
    <path class="cls-2" d="M46.79,62.33h-16.72c-1.77,0-3.2-1.43-3.2-3.2V21.2c0-1.77,1.43-3.2,3.2-3.2h17.56c.5,0,.98.2,1.33.56l8.33,8.5c.3.31.48.73.48,1.16v7.88"/>
    <polyline class="cls-1" points="48 21.33 48 27.62 52.92 27.62"/>
  </g>
</svg>